# xmcd
#
# Track frame offsets: 
#        150
#        17742
#        40205
#        60905
#        79130
#        98045
#        118252
#        134090
#        152145
#        169507
#
# Disc length: 2560 seconds
#
# Revision: 4
# Processed by: cddbd v1.5.2PL0 Copyright (c) Steve Scherf et al.
# Submitted via: ExactAudioCopy v1.0b3
#
DISCID=7c09fe0a
DTITLE=薬師丸ひろ子 - シンシアリー・ユアーズ SHM-CD TYCN-80019
DYEAR=1988
DGENRE=JPop
TTITLE0=時代
TTITLE1=Distance
TTITLE2=おとぎばなし
TTITLE3=もう一度
TTITLE4=雨は止（や）まない
TTITLE5=時の贈り物
TTITLE6=ハイテク・ラヴァーボーイ
TTITLE7=ル・パ・ラ
TTITLE8=色彩都市
TTITLE9=最終章
EXTD=YEAR: 1988
EXTT0=
EXTT1=
EXTT2=
EXTT3=
EXTT4=
EXTT5=
EXTT6=
EXTT7=
EXTT8=
EXTT9=
PLAYORDER=
